<svg width="37" height="37" viewBox="0 0 37 37" fill="none" xmlns="http://www.w3.org/2000/svg">
<g clip-path="url(#clip0_1_70)">
<path d="M18.5123 36.4882C28.481 36.4882 36.5622 28.4401 36.5622 18.5123C36.5622 8.58455 28.481 0.536499 18.5123 0.536499C8.54368 0.536499 0.462494 8.58455 0.462494 18.5123C0.462494 28.4401 8.54368 36.4882 18.5123 36.4882Z" fill="white"/>
<path d="M9.68785 9.25616C10.1688 9.25616 10.5882 9.6015 10.6807 10.0763L10.7423 10.6005H28.453C29.3102 10.6005 29.9885 11.4515 29.748 12.3148L27.4725 20.3993C27.306 20.979 26.7757 21.3798 26.1775 21.3798H12.8328L13.2213 23.4025H26.1898C26.751 23.4025 27.2012 23.8527 27.2012 24.4138C27.2012 24.975 26.751 25.4252 26.1898 25.4252H12.3457C11.9017 25.4252 11.4823 25.0798 11.3898 24.605L8.84918 11.285H6.66001C6.10501 11.285 5.64868 10.8287 5.64868 10.2737C5.64868 9.71866 6.10501 9.26233 6.66001 9.26233H9.68785V9.25616ZM11.0322 28.786C11.0322 27.6698 11.9387 26.7633 13.0548 26.7633C14.171 26.7633 15.0775 27.6698 15.0775 28.786C15.0775 29.9022 14.171 30.8087 13.0548 30.8087C11.9387 30.8087 11.0322 29.9022 11.0322 28.786ZM27.2012 28.786C27.2012 29.9022 26.2947 30.8087 25.1785 30.8087C24.0623 30.8087 23.1558 29.9022 23.1558 28.786C23.1558 27.6698 24.0623 26.7633 25.1785 26.7633C26.2947 26.7633 27.2012 27.6698 27.2012 28.786Z" fill="#34495E"/>
</g>
<defs>
<clipPath id="clip0_1_70">
<rect width="37" height="37" fill="white"/>
</clipPath>
</defs>
</svg>
