<svg width="35" height="35" viewBox="0 0 35 35" fill="none" xmlns="http://www.w3.org/2000/svg">
<path d="M29.1667 16.0417H9.96043L14.1604 11.8417C14.4331 11.569 14.5863 11.1992 14.5863 10.8135C14.5863 10.4279 14.4331 10.0581 14.1604 9.78542C13.8878 9.51275 13.5179 9.35956 13.1323 9.35956C12.7467 9.35956 12.3769 9.51275 12.1042 9.78542L5.41043 16.4792C5.27524 16.6141 5.16798 16.7743 5.0948 16.9508C5.02162 17.1272 4.98395 17.3163 4.98395 17.5073C4.98395 17.6983 5.02162 17.8874 5.0948 18.0638C5.16798 18.2403 5.27524 18.4005 5.41043 18.5354L12.1042 25.2292C12.2392 25.3642 12.3995 25.4713 12.5759 25.5444C12.7523 25.6174 12.9414 25.655 13.1323 25.655C13.3232 25.655 13.5123 25.6174 13.6887 25.5444C13.8651 25.4713 14.0254 25.3642 14.1604 25.2292C14.2954 25.0942 14.4025 24.9339 14.4756 24.7575C14.5487 24.5811 14.5863 24.392 14.5863 24.201C14.5863 24.0101 14.5487 23.821 14.4756 23.6446C14.4025 23.4682 14.2954 23.3079 14.1604 23.1729L9.96043 18.9583H29.1667C29.9688 18.9583 30.625 18.3021 30.625 17.5C30.625 16.6979 29.9688 16.0417 29.1667 16.0417Z" fill="#2980B9"/>
</svg>
