<svg width="34" height="34" viewBox="0 0 34 34" fill="none" xmlns="http://www.w3.org/2000/svg">
<g clip-path="url(#clip0_1_27)">
<path d="M14.9656 33.1217C18.9833 33.0877 22.882 31.382 25.5453 28.7697C22.1623 25.3867 18.7793 22.0037 15.402 18.6263C15.2773 18.734 15.1243 18.7907 14.9713 18.802V33.1217H14.9656Z" fill="#2B81BA"/>
<path d="M14.1213 18.4393H14.1496L4.40298 9.47466L3.56431 8.70966C1.43931 11.271 0.152977 14.8467 0.13031 18.428H14.0986C14.0986 18.428 14.11 18.4337 14.1213 18.4393Z" fill="#E94C3D"/>
<path d="M10.0866 22.695C11.475 21.2953 12.8633 19.8957 14.2573 18.5017C14.246 18.5073 14.161 18.4563 14.1156 18.4393C14.1043 18.4337 14.0986 18.4337 14.093 18.4337H0.13031C0.175643 22.2927 1.81331 25.925 4.27264 28.5487C4.63531 28.186 4.99798 27.8177 5.36631 27.455C6.94164 25.874 8.51698 24.2873 10.0866 22.695Z" fill="#F49D15"/>
<path d="M14.9204 18.802C14.739 18.802 14.5634 18.7397 14.4217 18.6093L14.416 18.6037C14.3537 18.5697 14.297 18.5357 14.263 18.5017C12.869 19.8957 11.4807 21.2953 10.0924 22.695C8.51703 24.2817 6.94736 25.8683 5.36636 27.455C5.0037 27.8177 4.64103 28.186 4.2727 28.5487L4.26703 28.5543C6.93036 31.2913 10.8574 33.1047 14.9657 33.1613V33.116V18.7963C14.9487 18.7963 14.9374 18.802 14.9204 18.802Z" fill="#18A085"/>
<path d="M33.6347 7.85146C34.1485 4.62157 31.9467 1.58672 28.7168 1.07293C25.4869 0.559142 22.452 2.76098 21.9382 5.99087C21.4244 9.22077 23.6263 12.2556 26.8562 12.7694C30.0861 13.2832 33.1209 11.0814 33.6347 7.85146Z" fill="#E94C3D"/>
<path d="M27.744 13.906C23.919 13.906 20.8193 10.8063 20.8193 6.98133C20.8193 6.16533 20.9667 5.38333 21.2273 4.65233C19.3517 3.79666 17.2607 3.30933 15.0507 3.30933C10.965 3.30933 7.26465 4.95266 4.56732 7.61599L15.419 17.51C15.725 17.7877 15.742 18.258 15.47 18.5583C15.4473 18.581 15.419 18.6037 15.3963 18.6207C18.7907 22.015 22.1907 25.415 25.585 28.8093C28.2257 26.1177 29.9767 22.304 29.9767 18.2353C29.9767 16.6657 29.7273 15.1527 29.274 13.7247C28.7867 13.8437 28.271 13.906 27.744 13.906Z" fill="white"/>
</g>
<defs>
<clipPath id="clip0_1_27">
<rect width="34" height="34" fill="white"/>
</clipPath>
</defs>
</svg>
