<svg width="132" height="33" viewBox="0 0 132 33" fill="none" xmlns="http://www.w3.org/2000/svg">
<g clip-path="url(#clip0_1_37)">
<path d="M10.4698 26.422C13.3056 26.3978 16.0556 25.1933 17.9355 23.3519C15.5485 20.9649 13.1615 18.5779 10.7745 16.1909C10.6865 16.2657 10.5798 16.3064 10.4698 16.313V26.422Z" fill="#2980B9"/>
<path d="M9.8747 16.06H9.8956L3.0162 9.73498L2.4255 9.19598C0.9251 11.0022 0.0176 13.5267 0 16.0545H9.8582C9.8604 16.0545 9.867 16.0567 9.8747 16.06Z" fill="#E84C3C"/>
<path d="M7.029 19.0663C8.0091 18.0774 8.9881 17.0896 9.9726 16.1051C9.9649 16.1073 9.9044 16.0743 9.8736 16.06C9.8659 16.0567 9.8593 16.0545 9.8571 16.0545H0C0.0341 18.7836 1.1902 21.3466 2.9227 23.199C3.1801 22.9416 3.4364 22.6831 3.6938 22.4257C4.807 21.3081 5.918 20.1872 7.029 19.0663Z" fill="#F39C12"/>
<path d="M10.439 16.3163C10.3125 16.3163 10.186 16.2712 10.0859 16.1799L10.0826 16.1777C10.0375 16.1535 9.99787 16.1282 9.97257 16.1062C8.98807 17.0907 8.00797 18.0785 7.02897 19.0674C5.91797 20.1883 4.80807 21.3081 3.69377 22.4257C3.43747 22.6831 3.18117 22.9416 2.92267 23.199C2.92157 23.2001 2.92047 23.2012 2.91937 23.2023C4.80037 25.135 7.56907 26.4121 10.4698 26.4528V26.422V16.313C10.4599 16.3141 10.4489 16.3163 10.439 16.3163Z" fill="#16A085"/>
<path d="M23.6473 8.58721C24.0099 6.30788 22.456 4.1662 20.1767 3.80362C17.8974 3.44104 15.7557 4.99487 15.3931 7.2742C15.0306 9.55352 16.5844 11.6952 18.8637 12.0578C21.143 12.4204 23.2847 10.8665 23.6473 8.58721Z" fill="#E84C3C"/>
<path d="M24.0482 12.9415C24.0482 12.7897 24.0812 12.6445 24.1483 12.507C24.2154 12.3684 24.2979 12.2595 24.3958 12.1792C24.6279 12.0274 24.8688 11.9515 25.1185 11.9515H27.1392C27.3086 11.9515 27.4417 11.9823 27.5407 12.045C27.6386 12.1077 27.7211 12.188 27.7882 12.2859C27.8553 12.3838 27.9125 12.496 27.962 12.6203C28.0115 12.7457 28.0709 12.87 28.1424 12.9954C28.16 13.0317 28.1963 13.1175 28.2491 13.2561C28.303 13.3947 28.3602 13.5465 28.4229 13.7115C28.4845 13.8765 28.545 14.0327 28.6033 14.1801C28.6605 14.3275 28.699 14.4232 28.7166 14.4672C28.9839 14.1735 29.2402 13.8633 29.4855 13.5377C29.7308 13.2121 29.9915 12.9118 30.2676 12.6346C30.5437 12.3585 30.8517 12.1308 31.1905 11.9526C31.5293 11.7744 31.9308 11.6853 32.395 11.6853C32.8768 11.6853 33.3069 11.7216 33.6853 11.792C34.0648 11.8635 34.4234 11.968 34.7622 12.1066C35.101 12.2452 35.4376 12.4212 35.772 12.6346C36.1064 12.8491 36.4694 13.0988 36.8621 13.3837C37.477 13.7137 37.5936 14.2043 37.2097 14.8555L35.992 16.929C35.8138 17.1974 35.5949 17.3624 35.3364 17.424C35.0779 17.4867 34.7963 17.446 34.4938 17.303C34.1099 16.929 33.7205 16.6496 33.3234 16.467C32.9263 16.2844 32.4742 16.1931 31.9649 16.1931C31.6173 16.1931 31.3115 16.2426 31.0486 16.3405C30.7857 16.4384 30.547 16.577 30.3325 16.7552C30.118 16.9334 29.9178 17.1479 29.7308 17.3976C29.5427 17.6473 29.3557 17.9234 29.1687 18.227V27.9125C29.1687 28.2524 29.0862 28.5076 28.9212 28.6814C28.7562 28.8552 28.4812 28.9421 28.0984 28.9421H25.0888C24.3936 28.9421 24.046 28.5989 24.046 27.9125V12.9415H24.0482Z" fill="white"/>
<path d="M39.1083 8.1268C39.1083 7.9772 39.1127 7.8397 39.1215 7.7165C39.1303 7.5933 39.1677 7.4866 39.2337 7.3986C39.2997 7.3106 39.4031 7.2424 39.545 7.1929C39.6858 7.1445 39.8849 7.1203 40.1412 7.1203H43.3048C43.4731 7.1203 43.6117 7.1489 43.7217 7.2061C43.8317 7.2633 43.9208 7.3359 43.9868 7.425C44.0528 7.513 44.0968 7.6087 44.1188 7.7099C44.1408 7.8111 44.1518 7.9068 44.1518 7.9948V17.7903L48.917 12.4949C49.1469 12.2386 49.4197 12.111 49.7376 12.111H53.801C54.2872 12.111 54.5292 12.3013 54.5292 12.6808C54.5292 12.7776 54.5138 12.8579 54.483 12.9195C54.4522 12.9811 54.3884 13.0702 54.2916 13.1846L48.8499 18.9299L55.6941 27.72H55.6677C55.7821 27.8344 55.8635 27.9521 55.9119 28.0709C55.9603 28.1897 55.9845 28.2975 55.9845 28.3954C55.9845 28.5978 55.9295 28.7375 55.8184 28.8123C55.7084 28.8882 55.5434 28.9245 55.3223 28.9245H50.8475C50.6979 28.9245 50.556 28.8673 50.424 28.7518C50.292 28.6374 50.1457 28.4658 49.9873 28.2359L45.6588 22.1067L44.1892 23.6291V27.9048C44.1892 27.9752 44.1782 28.0687 44.1562 28.1831C44.1342 28.2975 44.0891 28.4108 44.0231 28.5208C43.9571 28.6308 43.8658 28.7254 43.7514 28.8057C43.637 28.8849 43.4863 28.9245 43.3004 28.9245H39.9784C39.82 28.9245 39.6825 28.8827 39.5681 28.7991C39.4537 28.7155 39.3624 28.6209 39.2964 28.5142C39.2304 28.4075 39.182 28.3085 39.1512 28.2161C39.1204 28.1226 39.105 28.0687 39.105 28.0511V8.1268H39.1083Z" fill="white"/>
<path d="M70.4968 26.9731C69.7114 27.6958 68.827 28.2612 67.8447 28.6671C66.8624 29.073 65.8229 29.2765 64.7251 29.2765C63.5019 29.2765 62.3458 29.0532 61.2568 28.6066C60.1667 28.16 59.2119 27.5418 58.3913 26.752C57.5696 25.9611 56.9184 25.0305 56.4355 23.9602C55.9537 22.8888 55.7128 21.7228 55.7128 20.4655C55.7128 19.679 55.8085 18.9178 56.001 18.1819C56.1924 17.4449 56.4652 16.7563 56.8172 16.1128C57.1703 15.4704 57.5982 14.8786 58.1031 14.3385C58.6069 13.7984 59.1723 13.3364 59.7971 12.9525C60.4219 12.5686 61.1006 12.2694 61.8332 12.0549C62.5658 11.8404 63.338 11.7337 64.1498 11.7337C64.8901 11.7337 65.6095 11.8316 66.3069 12.0285C67.0032 12.2243 67.6566 12.5015 68.2682 12.859C68.8798 13.2165 69.4397 13.6444 69.949 14.1438C70.4583 14.6443 70.8961 15.191 71.2624 15.7839C71.6276 16.3779 71.9114 17.0115 72.1127 17.6858C72.3129 18.3601 72.4141 19.0542 72.4141 19.7681C72.4141 20.2323 72.4075 20.6118 72.3943 20.9066C72.38 21.2003 72.3118 21.4357 72.1864 21.6095C72.0621 21.7833 71.8542 21.9043 71.5638 21.9714C71.2734 22.0385 70.8466 22.0726 70.2856 22.0726H60.643C60.7321 22.6446 60.9136 23.1209 61.1864 23.5048C61.4581 23.8887 61.7727 24.1945 62.1302 24.4233C62.4877 24.6499 62.8672 24.8127 63.2687 24.9117C63.6702 25.0096 64.0497 25.0591 64.4072 25.0591C64.7295 25.0591 65.0584 25.025 65.3983 24.959C65.7371 24.8919 66.0649 24.8028 66.3828 24.6906C66.6996 24.5795 66.99 24.4497 67.2529 24.3023C67.5158 24.1549 67.7281 24.0009 67.8898 23.8403C68.0317 23.7237 68.1549 23.6368 68.2572 23.5796C68.3606 23.5213 68.4695 23.4927 68.5861 23.4927C68.7016 23.4927 68.8204 23.5334 68.9403 23.6137C69.0613 23.694 69.1977 23.8106 69.3484 23.9624L70.7685 25.5695C70.8664 25.6861 70.9291 25.7906 70.9555 25.8841C70.983 25.9776 70.9962 26.0744 70.9962 26.1723C70.9962 26.3505 70.9467 26.5045 70.8488 26.6343C70.7465 26.7608 70.631 26.8752 70.4968 26.9731ZM64.0552 15.818C63.7076 15.818 63.3699 15.8873 63.0443 16.0248C62.7176 16.1634 62.4118 16.3482 62.1269 16.5814C61.8409 16.8135 61.5846 17.0775 61.3569 17.3712C61.1292 17.666 60.9433 17.9652 60.8003 18.2688H67.6445C67.4564 17.9201 67.2529 17.5989 67.0351 17.3041C66.8162 17.0093 66.5665 16.7508 66.2849 16.5275C66.0044 16.3042 65.6821 16.1304 65.3213 16.005C64.9583 15.8796 64.537 15.818 64.0552 15.818Z" fill="white"/>
<path d="M77.0605 23.5807C77.3014 23.8216 77.5621 24.024 77.8426 24.189C78.1231 24.354 78.3926 24.4871 78.6511 24.5894C78.9096 24.6917 79.1362 24.7654 79.332 24.8094C79.5289 24.8534 79.662 24.8754 79.7324 24.8754C79.9018 24.8754 80.1185 24.8688 80.3814 24.8556C80.6443 24.8424 80.8951 24.8028 81.136 24.7346C81.3758 24.6686 81.5837 24.5586 81.7575 24.4079C81.9313 24.2561 82.0182 24.0427 82.0182 23.7666C82.0182 23.5169 81.9698 23.3189 81.8708 23.1715C81.7729 23.0241 81.6299 22.8998 81.444 22.7975C81.257 22.6952 81.0271 22.6028 80.7554 22.5225C80.4837 22.4433 80.1779 22.3487 79.8402 22.242C78.771 21.9571 77.8888 21.6139 77.1936 21.2135C76.4984 20.8131 75.9484 20.3654 75.5425 19.8704C75.1366 19.3754 74.855 18.843 74.6944 18.2732C74.5338 17.7034 74.4546 17.1017 74.4546 16.4692C74.4546 15.73 74.6009 15.0568 74.8957 14.4507C75.1894 13.8446 75.6085 13.3265 76.1519 12.8931C76.6953 12.4608 77.3465 12.1275 78.1033 11.891C78.8601 11.6556 79.7016 11.5368 80.6289 11.5368C81.191 11.5368 81.7157 11.5841 82.2063 11.6765C82.6958 11.77 83.1644 11.9174 83.6099 12.1176C84.0554 12.3178 84.4899 12.5763 84.9134 12.8931C85.3369 13.2099 85.7582 13.5861 86.1762 14.0228C86.328 14.201 86.405 14.3682 86.4105 14.5244C86.4149 14.6806 86.3148 14.8478 86.1091 15.026C85.7615 15.3109 85.4293 15.5914 85.1136 15.8675C84.7979 16.1436 84.4701 16.4516 84.1313 16.7893C84.0235 16.8784 83.9168 16.9345 83.8101 16.9565C83.7023 16.9785 83.6011 16.9763 83.5021 16.9499C83.4031 16.9235 83.3107 16.8784 83.2216 16.8168C83.1325 16.7541 83.0522 16.6782 82.9807 16.5902C82.6683 16.2426 82.313 16.0083 81.9115 15.8884C81.5111 15.7685 81.136 15.708 80.7884 15.708C80.3517 15.708 80.0041 15.7839 79.7456 15.9357C79.4871 16.0875 79.3672 16.3185 79.3848 16.6309C79.4024 16.863 79.4893 17.0434 79.6455 17.1721C79.8006 17.3019 79.9931 17.4064 80.2197 17.4867C80.4463 17.567 80.6872 17.6319 80.9424 17.6803C81.1954 17.7298 81.4297 17.7848 81.6431 17.8475C82.4461 18.106 83.1809 18.3865 83.8486 18.689C84.5163 18.9926 85.096 19.3644 85.5855 19.8044C86.075 20.2455 86.4567 20.7735 86.7284 21.3884C86.999 22.0033 87.1354 22.7513 87.1354 23.6335C87.1354 24.5157 86.9594 25.3044 86.6074 25.9985C86.2565 26.6937 85.7714 27.2767 85.1576 27.7497C84.5427 28.2216 83.8134 28.5824 82.9719 28.8321C82.1304 29.0818 81.2229 29.2061 80.2527 29.2061C79.7005 29.2061 79.1384 29.1566 78.5686 29.0587C77.9988 28.9608 77.4466 28.8024 76.9109 28.5846C76.3763 28.3668 75.8692 28.0852 75.3874 27.742C74.9067 27.3988 74.4788 26.983 74.1048 26.4924C74.0069 26.3681 73.9332 26.2361 73.8837 26.0975C73.8353 25.96 73.8122 25.8236 73.8166 25.6905C73.821 25.5574 73.8485 25.4342 73.8969 25.3231C73.9464 25.212 74.0245 25.1163 74.1312 25.036L75.8549 23.3112C76.0683 23.133 76.2575 23.0703 76.4225 23.1242C76.5908 23.1792 76.8031 23.331 77.0605 23.5807Z" fill="white"/>
<path d="M90.288 9.26419C90.288 8.98809 90.3793 8.78129 90.5619 8.64269C90.7445 8.50409 91.0052 8.37319 91.3429 8.24889L94.3745 7.19399C94.4196 7.18519 94.4614 7.18079 94.5021 7.18079C94.5417 7.18079 94.5791 7.18079 94.6165 7.18079C94.9454 7.18079 95.1654 7.27649 95.2776 7.46789C95.3887 7.65929 95.4437 7.91119 95.4437 8.22249L95.4294 12.43H97.6591C97.944 12.43 98.1761 12.5147 98.3532 12.683C98.5314 12.8524 98.6205 13.1054 98.6205 13.4442V16.0215C98.6205 16.3955 98.5314 16.6694 98.3532 16.8421C98.1761 17.0159 97.944 17.1028 97.6591 17.1028H95.4294L95.4426 27.8399C95.4426 28.1787 95.3447 28.4339 95.1489 28.6077C94.9531 28.7815 94.6825 28.8684 94.3349 28.8684H91.3165C90.6312 28.8684 90.288 28.5252 90.288 27.8399L90.2748 17.1028H89.3002C88.6138 17.1028 88.2717 16.742 88.2717 16.0215V13.4442C88.2717 12.7677 88.6138 12.43 89.3002 12.43H90.2748L90.288 9.26419Z" fill="white"/>
<path d="M100.66 13.1681C100.66 13.0196 100.692 12.8766 100.759 12.7413C100.825 12.6049 100.905 12.4982 101.002 12.419C101.23 12.2705 101.466 12.1957 101.712 12.1957H103.697C103.863 12.1957 103.995 12.2265 104.091 12.2881C104.188 12.3497 104.268 12.4278 104.334 12.5246C104.4 12.6214 104.456 12.7314 104.504 12.8535C104.553 12.9767 104.612 13.0988 104.682 13.222C104.699 13.2572 104.734 13.3419 104.786 13.4783C104.839 13.6147 104.895 13.7632 104.958 13.9249C105.019 14.0877 105.078 14.2406 105.135 14.3847C105.192 14.5299 105.229 14.6234 105.247 14.6674C105.51 14.3781 105.762 14.0745 106.004 13.7544C106.245 13.4343 106.501 13.1384 106.772 12.8667C107.043 12.595 107.346 12.3717 107.679 12.1957C108.012 12.0208 108.406 11.9328 108.863 11.9328C109.336 11.9328 109.759 11.968 110.131 12.0373C110.504 12.1077 110.856 12.21 111.189 12.3464C111.521 12.4828 111.852 12.6555 112.181 12.8656C112.51 13.0757 112.867 13.321 113.253 13.6015C113.858 13.926 113.971 14.4078 113.595 15.048L112.399 17.0852C112.223 17.3481 112.009 17.5109 111.756 17.5714C111.502 17.633 111.225 17.5934 110.927 17.4526C110.55 17.0841 110.167 16.8102 109.777 16.6309C109.386 16.4516 108.942 16.3614 108.442 16.3614C108.1 16.3614 107.8 16.4098 107.543 16.5066C107.284 16.6034 107.05 16.7387 106.84 16.9136C106.629 17.0896 106.432 17.2997 106.248 17.545C106.063 17.7903 105.879 18.062 105.696 18.3601V27.8784C105.696 28.2117 105.615 28.4636 105.453 28.6341C105.29 28.8046 105.021 28.8904 104.644 28.8904H101.686C101.003 28.8904 100.661 28.5538 100.661 27.8784V13.1681H100.66Z" fill="white"/>
<path d="M132 27.8993C132 28.0511 131.974 28.1941 131.92 28.3327C131.867 28.4702 131.778 28.5791 131.653 28.6594C131.556 28.7573 131.44 28.8189 131.307 28.8464C131.174 28.8728 131.058 28.886 130.96 28.886H128.336C128.149 28.886 127.998 28.8618 127.883 28.8134C127.767 28.765 127.674 28.6957 127.602 28.6066C127.532 28.5175 127.471 28.4086 127.423 28.2799C127.373 28.1512 127.323 28.0115 127.27 27.8597L126.884 26.8609C126.644 27.1007 126.381 27.357 126.097 27.6265C125.814 27.8982 125.5 28.1479 125.158 28.38C124.817 28.611 124.445 28.8035 124.046 28.9597C123.647 29.1148 123.22 29.1929 122.767 29.1929C121.958 29.1929 121.184 29.0906 120.442 28.886C119.701 28.6825 119.008 28.391 118.364 28.0137C117.721 27.6364 117.137 27.1832 116.613 26.6552C116.088 26.1261 115.639 25.5387 115.261 24.8897C114.884 24.2407 114.592 23.5422 114.389 22.792C114.184 22.0418 114.082 21.2575 114.082 20.4402C114.082 19.206 114.309 18.0576 114.762 16.9961C115.215 15.9346 115.832 15.0106 116.613 14.2252C117.394 13.4387 118.314 12.8216 119.371 12.3739C120.428 11.9251 121.56 11.7007 122.768 11.7007C123.319 11.7007 123.825 11.7832 124.287 11.9471C124.748 12.111 125.168 12.3266 125.545 12.5928C125.922 12.859 126.265 13.1615 126.57 13.4992C126.877 13.8369 127.15 14.179 127.39 14.5244L127.91 12.9129C127.998 12.6907 128.072 12.5114 128.13 12.3739C128.188 12.2364 128.25 12.1341 128.317 12.067C128.383 12.001 128.466 11.9559 128.564 11.9339C128.66 11.9119 128.799 11.9009 128.976 11.9009H130.962C131.059 11.9009 131.175 11.9141 131.308 11.9405C131.441 11.9669 131.557 12.0296 131.655 12.1264C131.779 12.2243 131.868 12.3354 131.921 12.4597C131.974 12.584 132.001 12.7259 132.001 12.8865V27.8993H132ZM118.878 20.4391C118.878 21.0254 118.969 21.5743 119.151 22.0847C119.332 22.5951 119.592 23.0373 119.93 23.4091C120.266 23.782 120.673 24.0779 121.148 24.2946C121.624 24.5124 122.149 24.6213 122.727 24.6213C123.322 24.6213 123.875 24.5124 124.386 24.2946C124.896 24.0768 125.341 23.782 125.718 23.4091C126.094 23.0362 126.39 22.5951 126.603 22.0847C126.816 21.5743 126.922 21.0254 126.922 20.4391C126.922 19.8704 126.816 19.3292 126.603 18.8144C126.389 18.2996 126.094 17.8464 125.718 17.4548C125.339 17.0643 124.896 16.7552 124.386 16.5286C123.874 16.302 123.322 16.1887 122.727 16.1887C122.151 16.1887 121.624 16.302 121.148 16.5286C120.673 16.7552 120.266 17.0643 119.93 17.4548C119.592 17.8464 119.332 18.2985 119.151 18.8144C118.969 19.3292 118.878 19.8715 118.878 20.4391Z" fill="white"/>
<path d="M19.4909 12.8623C16.7926 12.8623 14.6058 10.6755 14.6058 7.97719C14.6058 7.39969 14.7114 6.84749 14.8951 6.33269C13.5652 5.72659 12.0901 5.38559 10.5336 5.38559C7.64941 5.38559 5.03801 6.54719 3.13501 8.42489L10.7932 15.4044C11.0077 15.5991 11.022 15.9313 10.8273 16.1458C10.8119 16.1634 10.7932 16.1766 10.7756 16.192C13.1725 18.5889 15.5694 20.9869 17.9674 23.3838C19.8319 21.483 21.0683 18.7935 21.0683 15.9203C21.0683 14.8104 20.8923 13.7434 20.5733 12.738C20.2246 12.8172 19.8627 12.8623 19.4909 12.8623Z" fill="white"/>
</g>
<defs>
<clipPath id="clip0_1_37">
<rect width="132" height="33" fill="white"/>
</clipPath>
</defs>
</svg>
