<svg width="45" height="45" viewBox="0 0 45 45" fill="none" xmlns="http://www.w3.org/2000/svg">
<path d="M21.2475 40.9725C30.907 40.9725 38.7375 33.142 38.7375 23.4825C38.7375 13.823 30.907 5.99249 21.2475 5.99249C11.588 5.99249 3.75751 13.823 3.75751 23.4825C3.75751 33.142 11.588 40.9725 21.2475 40.9725Z" fill="white"/>
<path d="M32.175 21.8925C36.9426 21.8925 40.8075 18.0276 40.8075 13.26C40.8075 8.4924 36.9426 4.6275 32.175 4.6275C27.4074 4.6275 23.5425 8.4924 23.5425 13.26C23.5425 18.0276 27.4074 21.8925 32.175 21.8925Z" fill="#E84B3C"/>
<path d="M24.9225 32.58C24.975 34.3125 23.5125 36.1725 21.075 36.09C19.14 36.0225 17.445 34.3125 17.6325 32.58C20.055 32.58 22.4775 32.58 24.9225 32.58Z" fill="#35495E"/>
<path d="M31.3425 29.94C30.225 28.335 29.7075 26.505 29.475 24.6C29.3775 23.8425 29.3325 23.07 29.2875 22.305C25.4625 21.27 22.65 17.775 22.65 13.62C22.65 12.7425 22.7775 11.895 23.01 11.085C22.755 10.245 22.11 9.8475 21.2625 9.8625C20.3925 9.8775 19.755 10.305 19.5225 11.175C19.365 11.7675 19.335 12.405 19.29 13.0275C19.275 13.2825 19.23 13.4025 18.9675 13.485C16.38 14.3325 14.6475 16.05 13.7625 18.6225C13.365 19.77 13.4325 20.9775 13.3125 22.1625C13.1775 23.4375 13.095 24.72 12.8475 25.965C12.4875 27.7725 11.7825 29.445 10.4775 30.81C10.3125 30.99 10.185 31.2075 9.97501 31.485C10.2675 31.53 10.4625 31.59 10.6575 31.59C12.4125 31.605 14.1675 31.5975 15.9225 31.605C21.09 31.62 26.265 31.6425 31.4325 31.6575C31.7775 31.6575 32.115 31.605 32.46 31.575C32.475 31.53 32.49 31.485 32.5125 31.44C32.3925 31.2675 32.2725 31.0875 32.1375 30.9225C31.875 30.5925 31.5825 30.285 31.3425 29.94Z" fill="#35495E"/>
</svg>
