<svg width="36" height="36" viewBox="0 0 36 36" fill="none" xmlns="http://www.w3.org/2000/svg">
<g clip-path="url(#clip0_1_73)">
<circle cx="18" cy="18" r="18" fill="#34495E"/>
<path d="M0.00720215 18.036C0.00720215 8.09641 8.064 0.0396118 18.0036 0.0396118C27.9423 0.0396118 36 8.09641 36 18.036C36 27.9756 27.9423 36.0324 18.0036 36.0324C8.064 36.0324 0.00720215 27.9747 0.00720215 18.036ZM5.265 27.1692C8.1099 31.1301 12.7548 33.7095 18.0036 33.7095C23.2524 33.7095 27.8973 31.1292 30.7422 27.1692C30.5145 25.2108 29.097 23.5665 27.1476 23.0787L24.7986 22.4919C22.9068 24.1164 20.5236 25.002 18.0036 25.002C15.4836 25.002 13.1004 24.1164 11.2086 22.4919L8.8596 23.0787C6.9093 23.5665 5.4927 25.2108 5.265 27.1692ZM9.8757 14.553C9.8757 19.0413 13.5144 22.6809 18.0036 22.6809C22.4928 22.6809 26.1315 19.0422 26.1315 14.553C26.1315 10.0638 22.4928 6.42511 18.0036 6.42511C13.5144 6.42511 9.8757 10.0638 9.8757 14.553Z" fill="white"/>
</g>
<defs>
<clipPath id="clip0_1_73">
<rect width="36" height="36" fill="white"/>
</clipPath>
</defs>
</svg>
