<svg width="30" height="30" viewBox="0 0 30 30" fill="none" xmlns="http://www.w3.org/2000/svg">
<path d="M9.0877 4.26462H1.16309V6.36H9.0877V4.26462Z" fill="#95A5A6"/>
<path d="M1.16309 4.26627L1.16309 12.1909H3.25847L3.25847 4.26627H1.16309Z" fill="#95A5A6"/>
<path d="M28.804 12.1915V4.26688H26.7086V12.1915H28.804Z" fill="#95A5A6"/>
<path d="M28.8046 4.26462H20.88V6.36H28.8046V4.26462Z" fill="#95A5A6"/>
<path d="M20.9088 26.584L28.8334 26.584L28.8334 24.4886L20.9088 24.4886L20.9088 26.584Z" fill="#95A5A6"/>
<path d="M28.8372 26.5865L28.8372 18.6619L26.7418 18.6619L26.7418 26.5865L28.8372 26.5865Z" fill="#95A5A6"/>
<path d="M1.1958 18.6625L1.1958 26.5871L3.29118 26.5871L3.29118 18.6625L1.1958 18.6625Z" fill="#95A5A6"/>
<path d="M1.19556 26.584L9.12018 26.584L9.12018 24.4886L1.19556 24.4886L1.19556 26.584Z" fill="#95A5A6"/>
<path d="M9.81231 8.90768H5.45538V21.9415H9.81231V8.90768Z" fill="#95A5A6"/>
<path d="M14.1 8.90768H11.5984V21.9415H14.1V8.90768Z" fill="#95A5A6"/>
<path d="M20.2569 8.90768H15.9V21.9415H20.2569V8.90768Z" fill="#95A5A6"/>
<path d="M24.5446 8.90768H22.0431V21.9415H24.5446V8.90768Z" fill="#95A5A6"/>
</svg>
