<svg width="26" height="26" viewBox="0 0 26 26" fill="none" xmlns="http://www.w3.org/2000/svg">
<g clip-path="url(#clip0_1_159)">
<path fill-rule="evenodd" clip-rule="evenodd" d="M0 13C0 9.55219 1.36964 6.24558 3.80761 3.80761C6.24558 1.36964 9.55219 0 13 0C16.4478 0 19.7544 1.36964 22.1924 3.80761C24.6304 6.24558 26 9.55219 26 13C26 16.4478 24.6304 19.7544 22.1924 22.1924C19.7544 24.6304 16.4478 26 13 26C9.55219 26 6.24558 24.6304 3.80761 22.1924C1.36964 19.7544 0 16.4478 0 13H0ZM17.5864 18.8136L13 14.2255L8.4136 18.8136L7.1864 17.5881L11.7745 13L7.1864 8.4136L8.4136 7.1864L13 11.7745L17.5864 7.1864L18.8136 8.4136L14.2255 13L18.8136 17.5864L17.5881 18.8136H17.5864Z" fill="#95A5A6"/>
</g>
<defs>
<clipPath id="clip0_1_159">
<rect width="26" height="26" fill="white"/>
</clipPath>
</defs>
</svg>
